<svg xmlns="http://www.w3.org/2000/svg" viewBox="0 0 366.01 366.01" fill="#4275ba">
<path d="M18.7,366c-5.07-2-10.09-4-13.55-8.65a22.58,22.58,0,0,1-5-13.82q0-69.15,0-138.31a22.4,22.4,0,0,1,22.09-22.17c10.12-.19,20.24-.07,30.36-.08h4.19c-1.36-1.47-2.18-2.41-3.06-3.29Q29.15,155,4.51,130.4c-6-6-6-9.36,0-15.34L115.16,4.4c5.88-5.87,9.49-5.87,15.38,0q87.79,87.81,175.55,175.68a8.93,8.93,0,0,0,7.14,2.94c9.17-.19,18.34-.08,27.51-.07,13.34,0,20.41,5.11,24.7,17.73a4.47,4.47,0,0,0,.57.89V347.43a89.77,89.77,0,0,1-4.48,9.13c-3.25,5.17-8.6,7.49-14.1,9.45H301l-11.63-5.28c-1.33.82-3,2-4.75,2.88s-3.84,1.61-5.77,2.4ZM282.18,205.75c-1.53-5.84-3.76-7.45-10.26-7.45q-123.08,0-246.15,0c-7.8,0-10.22,2.44-10.22,10.25q0,65.93,0,131.86c0,7.83,2.34,10.13,10.26,10.13H271.6c7.09,0,8.24-.78,10.93-7.46,4.3,0,8.7-.06,13.09.06a2.69,2.69,0,0,1,2.09,1.29c1.33,5.3,5.19,6.17,9.86,6.14,11.07-.08,22.15,0,33.22,0,7.4,0,9.83-2.42,9.83-9.86q0-66.29,0-132.57c0-7.27-2.59-9.78-10-9.8-10.36,0-20.72.08-31.08-.05-5.83-.07-11.15.37-12.23,7.49Zm-263-83.2C35.55,139,52,155.43,68.34,171.7L171.73,68.28,122.6,19.06Q71,70.71,19.14,122.55ZM80.58,183H125q73.56,0,147.12,0c5.88,0,11.33,1,16.1,4.6.28.21.57.53.89.56.5.06,1.23.09,1.48-.2a1.54,1.54,0,0,0,0-1.47,18.07,18.07,0,0,0-2-2.06Q237.34,133.1,186.1,81.81a17.34,17.34,0,0,1-1.85-2.52Zm60.68,30.32h99a28.35,28.35,0,0,1,4.61.32c4.41.73,6.79,3.32,6.8,7.74q.06,45.39,0,90.78c0,4.93-3.09,8-8.06,8.07-7,.11-14.06-.06-21.08.13a4.73,4.73,0,0,0-3.42,2.08c-4.45,8.27-11.18,12.9-20.61,12.95s-16.43-4.59-21-13a4.61,4.61,0,0,0-3.41-2c-21.92-.13-43.83-.07-65.74-.13a3.61,3.61,0,0,0-3.82,2.29C100.3,330.9,93.39,335.39,84,335.38c-9.26,0-16.18-4.34-20.36-12.6-1.06-2.09-2.25-2.61-4.39-2.57-6.55.12-13.1.08-19.65,0-5.89,0-8.92-2.76-8.94-8.68q-.14-44.67,0-89.34c0-6.24,3.1-8.89,9.87-8.91,13,0,26,0,39,0ZM46.07,304.8c4.68,0,9.19.17,13.66-.11a5.31,5.31,0,0,0,3.67-2.33c4.6-8.19,11.49-12.78,20.84-12.67,9.17.11,16,4.64,20.39,12.81a4.72,4.72,0,0,0,3.35,2.2q33.24.19,66.46,0a4.38,4.38,0,0,0,3.13-2c4.48-8.25,11.31-13,20.66-13s16.5,4.61,20.83,13.17c.38.75,1.2,1.79,1.84,1.8,5,.15,10.11.09,15.2.09V259.29H190.89V243.78h45.2V228.94h-190v14.9H83.8v15.71H46.07Zm37.77.39a7.42,7.42,0,0,0-7.28,7.65A7.69,7.69,0,0,0,84,320.12a7.91,7.91,0,0,0,7.54-7.58A7.6,7.6,0,0,0,83.84,305.19Zm114.52,0a7.41,7.41,0,0,0-7.47,7.47,7.67,7.67,0,0,0,7.25,7.44,7.94,7.94,0,0,0,7.73-7.38A7.65,7.65,0,0,0,198.36,305.19Zm98.76-84h-15c0,4.61-.08,9,.08,13.34a2.67,2.67,0,0,0,1.79,1.88c4.34.17,8.7.09,13.14.09Zm.07,75.93v-15H282.31v15Zm-14.86,30.61h14.83V312.57H282.33Zm.05-75.87v14.77h14.84V251.87ZM215.76,157.1,225.88,147l-37.43-37.46-10.13,10.12Zm-20.31,5.49-29.8-29.85-10.16,10L185,172.32ZM99.49,244v15.11h30.14V244Zm75.86,15.17V244H145.12v15.16Z"/>
</svg>