<svg xmlns="http://www.w3.org/2000/svg" viewBox="0 0 733.62 610.59"><defs><style>.cls-1{fill:#4275ba;}.cls-2{fill:#19282f;}.cls-3{fill:#f7b91a;}.cls-4{fill:#ee8f27;}.cls-5{fill:#f2e9df;}.cls-6{fill:#2c67b0;}</style></defs><g id="Camada_2" data-name="Camada 2"><g id="Camada_1-2" data-name="Camada 1"><path class="cls-1" d="M712.14,69.56V541q0,3.3-.31,6.6c-.23,2.19-.54,4.36-1,6.54s-1,4.28-1.61,6.39-1.38,4.19-2.22,6.23-1.79,4-2.82,6-2.17,3.83-3.39,5.66a65.68,65.68,0,0,1-3.94,5.31,63.93,63.93,0,0,1-4.42,4.89q-2.34,2.34-4.89,4.44c-1.71,1.4-3.47,2.71-5.3,3.93s-3.73,2.36-5.66,3.41-3.94,2-6,2.81-4.1,1.59-6.21,2.23-4.24,1.18-6.4,1.61-4.34.75-6.52,1a65.94,65.94,0,0,1-6.59.33H89.16a65.94,65.94,0,0,1-6.59-.33c-2.18-.21-4.36-.54-6.52-1s-4.3-1-6.4-1.61-4.18-1.39-6.21-2.23-4-1.78-6-2.81-3.83-2.18-5.65-3.41a65.56,65.56,0,0,1-5.31-3.93c-1.69-1.4-3.33-2.88-4.89-4.44a63.93,63.93,0,0,1-4.42-4.89,65.68,65.68,0,0,1-3.94-5.31q-1.83-2.74-3.39-5.66t-2.82-6q-1.26-3.06-2.22-6.23c-.64-2.11-1.17-4.23-1.61-6.39s-.74-4.35-1-6.54-.31-4.4-.31-6.6V69.56q0-3.3.31-6.6c.23-2.2.54-4.37,1-6.53s1-4.3,1.61-6.41,1.38-4.18,2.22-6.21,1.79-4,2.82-6S32,34,33.26,32.17A69.13,69.13,0,0,1,41.62,22c1.56-1.56,3.2-3,4.89-4.44s3.47-2.7,5.31-3.93,3.72-2.35,5.65-3.4,3.94-2,6-2.82a64.63,64.63,0,0,1,6.21-2.23c2.1-.63,4.24-1.17,6.4-1.6s4.34-.75,6.52-1a63.08,63.08,0,0,1,6.59-.33H644.92a63.08,63.08,0,0,1,6.59.33c2.18.21,4.36.54,6.52,1s4.3,1,6.4,1.6a64.63,64.63,0,0,1,6.21,2.23c2,.85,4,1.78,6,2.82s3.83,2.18,5.66,3.4,3.59,2.54,5.3,3.93,3.33,2.88,4.89,4.44a69.13,69.13,0,0,1,8.36,10.21q1.83,2.74,3.39,5.66c1,1.94,2,3.94,2.82,6s1.58,4.11,2.22,6.21,1.17,4.24,1.61,6.41.74,4.33,1,6.53S712.14,67.36,712.14,69.56Z"/><path class="cls-2" d="M644.92,610.59H89.16a67.36,67.36,0,0,1-6.81-.34q-3.39-.35-6.74-1c-2.22-.45-4.44-1-6.61-1.66a67.12,67.12,0,0,1-6.41-2.31c-2.1-.87-4.16-1.85-6.16-2.91s-4-2.25-5.85-3.51-3.7-2.63-5.46-4.07-3.45-3-5.06-4.58-3.13-3.29-4.57-5.05-2.79-3.6-4.06-5.48a68.23,68.23,0,0,1-3.51-5.86A66.56,66.56,0,0,1,25,567.65c-.87-2.1-1.64-4.25-2.3-6.42a66.54,66.54,0,0,1-1.66-6.61,67.43,67.43,0,0,1-1-6.75c-.23-2.27-.34-4.54-.35-6.82V69.55c0-2.28.12-4.55.35-6.81a70.27,70.27,0,0,1,2.67-13.37Q23.7,46.1,25,43a68,68,0,0,1,2.91-6.17q1.6-3,3.51-5.85C32.7,29,34,27.21,35.49,25.45s3-3.44,4.57-5.05,3.3-3.14,5.06-4.59S48.7,13,50.58,11.75a64.1,64.1,0,0,1,5.85-3.5,66.73,66.73,0,0,1,6.16-2.93Q65.74,4,69,3a65.86,65.86,0,0,1,6.61-1.66c2.23-.45,4.48-.78,6.74-1S86.89,0,89.16,0H644.92c2.28,0,4.54.13,6.8.35s4.51.56,6.74,1A64.52,64.52,0,0,1,665.07,3q3.25,1,6.41,2.3a66.73,66.73,0,0,1,6.16,2.93,62.62,62.62,0,0,1,5.84,3.5c1.89,1.27,3.73,2.62,5.47,4.06s3.45,3,5.06,4.59,3.13,3.29,4.57,5.05a67.44,67.44,0,0,1,4.06,5.48q1.9,2.85,3.51,5.85A68,68,0,0,1,709.06,43a63.71,63.71,0,0,1,2.3,6.42A66,66,0,0,1,713,56a61.38,61.38,0,0,1,1,6.75c.23,2.26.34,4.53.35,6.81V541c0,2.27-.12,4.55-.34,6.81a63.9,63.9,0,0,1-1,6.75,65.18,65.18,0,0,1-1.66,6.61,63,63,0,0,1-2.3,6.43,64.24,64.24,0,0,1-2.91,6.17,67.28,67.28,0,0,1-3.5,5.84,68.17,68.17,0,0,1-4.07,5.48c-1.43,1.76-3,3.45-4.57,5.06s-3.29,3.14-5,4.59-3.58,2.8-5.48,4.07-3.83,2.42-5.84,3.51-4,2-6.16,2.91a64.42,64.42,0,0,1-6.41,2.3,67.28,67.28,0,0,1-6.61,1.67q-3.35.66-6.74,1A67,67,0,0,1,644.92,610.59ZM89.16,4.49c-2.14,0-4.26.11-6.37.32s-4.22.53-6.31,1a59.26,59.26,0,0,0-6.17,1.56,61.41,61.41,0,0,0-6,2.15c-2,.81-3.89,1.72-5.76,2.72s-3.69,2.1-5.47,3.28S49.59,17.94,48,19.28s-3.22,2.78-4.73,4.29S40.3,26.65,39,28.29s-2.62,3.36-3.8,5.13-2.28,3.6-3.28,5.47S30,42.7,29.14,44.66s-1.53,4-2.15,6-1.14,4.11-1.56,6.2-.73,4.18-.94,6.31-.31,4.24-.31,6.37V541c0,2.12.11,4.25.31,6.37s.53,4.23.94,6.31.95,4.15,1.56,6.2,1.33,4,2.15,6a63.17,63.17,0,0,0,2.73,5.76c1,1.89,2.1,3.71,3.28,5.49a63.37,63.37,0,0,0,3.8,5.12c1.35,1.65,2.77,3.22,4.28,4.73S46.31,590,48,591.31s3.34,2.61,5.11,3.79,3.6,2.29,5.47,3.3,3.8,1.91,5.76,2.72a61.41,61.41,0,0,0,6,2.15,59.26,59.26,0,0,0,6.17,1.56c2.09.42,4.2.73,6.31.94s4.23.32,6.37.33H644.92c2.12,0,4.25-.11,6.36-.33a63.55,63.55,0,0,0,6.31-.94,60.27,60.27,0,0,0,6.19-1.56,62,62,0,0,0,6-2.15c2-.81,3.88-1.73,5.76-2.72a60.59,60.59,0,0,0,5.47-3.3c1.77-1.18,3.48-2.45,5.11-3.79s3.23-2.78,4.73-4.29,2.93-3.08,4.28-4.73a63.37,63.37,0,0,0,3.8-5.12c1.18-1.78,2.28-3.6,3.28-5.49a63.17,63.17,0,0,0,2.73-5.76c.82-2,1.53-4,2.15-6s1.14-4.11,1.56-6.2.73-4.18.94-6.31.31-4.25.31-6.37V69.55q0-3.19-.31-6.37c-.21-2.13-.53-4.23-.94-6.31s-.95-4.17-1.56-6.2-1.33-4-2.15-6-1.72-3.88-2.73-5.77-2.1-3.69-3.28-5.47-2.45-3.48-3.8-5.13-2.77-3.21-4.28-4.72-3.08-2.93-4.73-4.29-3.34-2.61-5.11-3.81-3.59-2.27-5.47-3.28-3.8-1.91-5.76-2.72a62,62,0,0,0-6-2.15,60.27,60.27,0,0,0-6.19-1.56c-2.09-.42-4.18-.73-6.31-1s-4.24-.31-6.36-.32Z"/><path class="cls-3" d="M89.16,24.69H644.92a44.19,44.19,0,0,1,8.74.85,44.64,44.64,0,0,1,16.16,6.7,46.13,46.13,0,0,1,6.79,5.58,44.89,44.89,0,0,1,13.13,31.74V541A44.94,44.94,0,0,1,682.19,566a43.8,43.8,0,0,1-5.58,6.8,44.9,44.9,0,0,1-6.79,5.58,43.38,43.38,0,0,1-7.75,4.14,44.16,44.16,0,0,1-8.41,2.57,45.75,45.75,0,0,1-8.74.85H89.16a45.56,45.56,0,0,1-8.73-.85A43.72,43.72,0,0,1,72,582.49a43.13,43.13,0,0,1-7.76-4.14A45,45,0,0,1,51.89,566a44.75,44.75,0,0,1-4.13-7.76A45.18,45.18,0,0,1,44.34,541V69.56a45.27,45.27,0,0,1,7.55-24.94,45.47,45.47,0,0,1,5.58-6.8,46.66,46.66,0,0,1,6.79-5.58,44.78,44.78,0,0,1,16.17-6.7A44,44,0,0,1,89.16,24.69Z"/><path class="cls-4" d="M576.74,450.2H544.6V418h32.14Z"/><path class="cls-4" d="M544.6,418H512.46V385.83H544.6Z"/><path class="cls-4" d="M641,450.2H608.88V418H641Z"/><path class="cls-4" d="M608.9,418H576.75V385.83H608.9Z"/><path class="cls-4" d="M673.18,418H641V385.83h32.14Z"/><path class="cls-4" d="M512.45,450.2H480.31V418h32.14Z"/><path class="cls-4" d="M480.32,418H448.17V385.83h32.15Z"/><path class="cls-4" d="M448.17,450.2H416V418h32.14Z"/><path class="cls-4" d="M416,418H383.87V385.83H416Z"/><path class="cls-4" d="M383.87,450.2H351.73V418h32.14Z"/><path class="cls-4" d="M351.73,418H319.59V385.83h32.14Z"/><path class="cls-4" d="M319.59,450.2H287.45V418h32.14Z"/><path class="cls-4" d="M287.44,418H255.3V385.83h32.14Z"/><path class="cls-4" d="M255.3,450.2H223.16V418H255.3Z"/><path class="cls-4" d="M223.14,418H191V385.83h32.15Z"/><path class="cls-4" d="M191,450.2H158.86V418H191Z"/><path class="cls-4" d="M158.85,418H126.71V385.83h32.14Z"/><path class="cls-4" d="M126.71,450.2H94.57V418h32.14Z"/><path class="cls-4" d="M94.55,418H62.41V385.83H94.55Z"/><path class="cls-2" d="M35.72,313.06a18.86,18.86,0,0,1-.56-6.66c1.66-16.66,4.2-33.29,4.28-50.07a213.82,213.82,0,0,0-1.8-25q0-.28-.06-.51l0-.18c-.29-1.91-.56-3.82-.85-5.72-.64-4.13-1.32-8.26-2-12.38-4.56-27.15-12.24-55.66-5.53-82.46a28.17,28.17,0,0,1-7.28-17.77,22,22,0,0,1,1.2-8.19c-.66.87-1.3,1.75-1.89,2.66A21,21,0,0,0,14.56,130V320.69A27,27,0,0,0,0,344.67v22.86a27.41,27.41,0,0,0,.52,5.29,27.87,27.87,0,0,0,1.55,5.05,27.29,27.29,0,0,0,2.5,4.68A26.93,26.93,0,0,0,7.9,386.6,27.29,27.29,0,0,0,12,390a27.58,27.58,0,0,0,4.66,2.5,28.14,28.14,0,0,0,5,1.51,37.87,37.87,0,0,1,10.71-23.38c1.07-1.13,2.23-2.17,3.33-3.26.19-.63.36-1.25.52-1.89.2-.8.35-1.61.51-2.42A255.37,255.37,0,0,0,36,333,166.77,166.77,0,0,1,35.72,313.06Z"/><path class="cls-2" d="M733,356.17a43,43,0,0,0-1.72-6.76,42.07,42.07,0,0,0-16.85-21.49,42.85,42.85,0,0,0-3.94-2.24l.32.69a40.9,40.9,0,0,1,2.7,22.07,28.26,28.26,0,0,1,6,16.24,23.64,23.64,0,0,1-5.75,16.21,30,30,0,0,1,.07,13.69,20,20,0,0,0,3.75-.38,19.38,19.38,0,0,0,3.76-1.14,22.16,22.16,0,0,0,3.48-1.86,21.18,21.18,0,0,0,2.91-2.41,18.61,18.61,0,0,0,2.56-3.1,21,21,0,0,0,1.8-3.38,19.78,19.78,0,0,0,1.14-3.75,20.1,20.1,0,0,0,.38-3.88V363.09A42.24,42.24,0,0,0,733,356.17Z"/><path class="cls-5" d="M595.5,437.21c-22.94,0-42.53-19.56-47.86-47.67H442.78c-5.35,28.11-24.94,47.67-47.87,47.67H358.24c-22.93,0-42.52-19.56-47.87-47.67H210.16c-5.33,28.11-24.92,47.67-47.86,47.67H125.63c-22.93,0-42.51-19.56-47.86-47.67H27a22.43,22.43,0,0,1-4.29-.42,21.69,21.69,0,0,1-7.94-3.29,21.5,21.5,0,0,1-3.34-2.74,22,22,0,0,1-2.73-3.33,21.7,21.7,0,0,1-2-3.8A21.63,21.63,0,0,1,5,367.53V344.67A22,22,0,0,1,19.56,324V129.05A16,16,0,0,1,25,110.18,36.85,36.85,0,0,1,38.2,97.43a37.29,37.29,0,0,1,8.69-3.52,36.45,36.45,0,0,1,9.3-1.2H628.63a37.17,37.17,0,0,1,9.29,1.21A36.92,36.92,0,0,1,654.1,103a36.42,36.42,0,0,1,5.73,7.15,15.7,15.7,0,0,1,3.64,3.68,16.11,16.11,0,0,1,2.33,4.83,15.9,15.9,0,0,1,.59,5.34,16.23,16.23,0,0,1-1.12,5.06v20.73a21.82,21.82,0,0,1,13.08,8.46,22.4,22.4,0,0,1,2.51,4.41,19.31,19.31,0,0,1,9.69,6.76,18.89,18.89,0,0,1,2.93,5.5,19.41,19.41,0,0,1,1,6.14v59.62a19.46,19.46,0,0,1-1,6,18.93,18.93,0,0,1-2.82,5.4,19.15,19.15,0,0,1-9.32,6.76,21.15,21.15,0,0,1-7,9.94,37,37,0,0,1,3.78,1.23,34.92,34.92,0,0,1,5.6,2.74,36.51,36.51,0,0,1,5,3.64,35.72,35.72,0,0,1,7.86,9.61,35.34,35.34,0,0,1,2.6,5.66,36.35,36.35,0,0,1,2.11,12.22v23.56a38.54,38.54,0,0,1,5,1.76,38,38,0,0,1,5.4,2.88,37.52,37.52,0,0,1,9,8.23,35.51,35.51,0,0,1,3.36,5.12,36.5,36.5,0,0,1,2.48,5.59,38,38,0,0,1,1.51,5.93,36.66,36.66,0,0,1,.51,6.1v11.59a14.88,14.88,0,0,1-.29,2.91,13.81,13.81,0,0,1-.85,2.79,16.31,16.31,0,0,1-1.36,2.58,13.76,13.76,0,0,1-1.88,2.26,15,15,0,0,1-2.23,1.85,16.52,16.52,0,0,1-2.59,1.38,14.79,14.79,0,0,1-2.8.85,15.1,15.1,0,0,1-2.91.28H680c-5.35,28.11-24.94,47.67-47.87,47.67Z"/><path class="cls-2" d="M431.57,374.64a67.55,67.55,0,0,1-.7,9.76,65.64,65.64,0,0,1-2.09,9.37,59.66,59.66,0,0,1-3.39,8.64,48.67,48.67,0,0,1-4.56,7.58,42.2,42.2,0,0,1-5.56,6.22,34.73,34.73,0,0,1-6.33,4.61,29.77,29.77,0,0,1-6.88,2.84,26.84,26.84,0,0,1-14.3,0,29.59,29.59,0,0,1-6.88-2.84,35.21,35.21,0,0,1-6.35-4.61A43.31,43.31,0,0,1,369,410a49.41,49.41,0,0,1-4.55-7.58,56.44,56.44,0,0,1-3.4-8.64A64.29,64.29,0,0,1,359,384.4a67.37,67.37,0,0,1,0-19.51,64,64,0,0,1,2.08-9.37,56.15,56.15,0,0,1,3.4-8.65A49.79,49.79,0,0,1,369,339.3a42.18,42.18,0,0,1,5.55-6.21,35.33,35.33,0,0,1,6.35-4.63,30.48,30.48,0,0,1,6.88-2.84,27.11,27.11,0,0,1,14.3,0,30.67,30.67,0,0,1,6.88,2.84,34.85,34.85,0,0,1,6.33,4.63,41.12,41.12,0,0,1,5.56,6.21,49,49,0,0,1,4.56,7.57,59.34,59.34,0,0,1,3.39,8.65,65.34,65.34,0,0,1,2.09,9.37A67.52,67.52,0,0,1,431.57,374.64Z"/><path class="cls-2" d="M199,374.64a69,69,0,0,1-.7,9.76,65.64,65.64,0,0,1-2.09,9.37,58.54,58.54,0,0,1-3.39,8.64,49.5,49.5,0,0,1-4.57,7.58,41.58,41.58,0,0,1-5.55,6.22,34.46,34.46,0,0,1-6.34,4.61,29.52,29.52,0,0,1-6.87,2.84,26.87,26.87,0,0,1-14.31,0,29.52,29.52,0,0,1-6.87-2.84,34.86,34.86,0,0,1-6.35-4.61,43.37,43.37,0,0,1-5.56-6.22,51.06,51.06,0,0,1-4.55-7.58,57.45,57.45,0,0,1-3.39-8.64,65.64,65.64,0,0,1-2.09-9.37,68.32,68.32,0,0,1,0-19.51,65.34,65.34,0,0,1,2.09-9.37,57.16,57.16,0,0,1,3.39-8.65,51.47,51.47,0,0,1,4.55-7.57,42.23,42.23,0,0,1,5.56-6.21,35,35,0,0,1,6.35-4.63,30.41,30.41,0,0,1,6.87-2.84,27.14,27.14,0,0,1,14.31,0,30.41,30.41,0,0,1,6.87,2.84,34.58,34.58,0,0,1,6.34,4.63,40.54,40.54,0,0,1,5.55,6.21,49.88,49.88,0,0,1,4.57,7.57,58.23,58.23,0,0,1,3.39,8.65,65.34,65.34,0,0,1,2.09,9.37A69,69,0,0,1,199,374.64Z"/><path class="cls-2" d="M162.3,424.63H125.64v-50h63.75Z"/><path class="cls-2" d="M394.91,424.63H358.24v-50H422Z"/><path class="cls-2" d="M675.24,247.35H662.4a6.51,6.51,0,0,1-2.53-.52,6.33,6.33,0,0,1-2.15-1.43,6.91,6.91,0,0,1-1.45-2.15,6.72,6.72,0,0,1-.5-2.54V181.09a6.54,6.54,0,0,1,2-4.69,6.58,6.58,0,0,1,4.68-1.94h12.84a6.59,6.59,0,0,1,2.55.5,6.84,6.84,0,0,1,2.16,1.43,6.65,6.65,0,0,1,1.44,2.16,6.73,6.73,0,0,1,.51,2.54v59.62a6.93,6.93,0,0,1-.51,2.54,6.73,6.73,0,0,1-3.6,3.59A6.6,6.6,0,0,1,675.24,247.35Z"/><path class="cls-2" d="M660.77,261H646.53a2.32,2.32,0,0,1-2.31-2.32,2.19,2.19,0,0,1,.68-1.64,2.22,2.22,0,0,1,1.63-.68h14.24a4.45,4.45,0,0,0,1.75-.35,4.55,4.55,0,0,0,2.8-4.19V171.11a4.46,4.46,0,0,0-.35-1.73,4.31,4.31,0,0,0-1-1.47,4.36,4.36,0,0,0-1.47-1,4.64,4.64,0,0,0-1.75-.36H646.53a2.3,2.3,0,0,1-2.31-2.31,2.32,2.32,0,0,1,2.31-2.31h14.24a9.05,9.05,0,0,1,3.52.69,9.18,9.18,0,0,1,3,2,9.15,9.15,0,0,1,2.7,6.48v80.72a9.24,9.24,0,0,1-.7,3.51,9.5,9.5,0,0,1-2,3,9.2,9.2,0,0,1-6.5,2.69Z"/><path class="cls-1" d="M650.35,374.64H34.46V129.33A22.16,22.16,0,0,1,36.12,121a21.92,21.92,0,0,1,2-3.76,21.64,21.64,0,0,1,6-6,21.92,21.92,0,0,1,3.76-2,21.89,21.89,0,0,1,8.32-1.65H628.63a21.6,21.6,0,0,1,12.07,3.66A21.23,21.23,0,0,1,644,114a22.28,22.28,0,0,1,2.7,3.29,21.86,21.86,0,0,1,3.25,7.83,22.4,22.4,0,0,1,.41,4.24Z"/><path class="cls-2" d="M668.82,374.64a66.17,66.17,0,0,1-.71,9.76,61.77,61.77,0,0,1-2.08,9.37,57.45,57.45,0,0,1-3.39,8.64,50.26,50.26,0,0,1-4.56,7.58,43.31,43.31,0,0,1-5.55,6.22,34.8,34.8,0,0,1-6.34,4.61,29.77,29.77,0,0,1-6.88,2.84,26.84,26.84,0,0,1-14.3,0,29.84,29.84,0,0,1-6.89-2.84,34.73,34.73,0,0,1-6.33-4.61,43.37,43.37,0,0,1-5.56-6.22,50.26,50.26,0,0,1-4.56-7.58,57.42,57.42,0,0,1-3.38-8.64,64.31,64.31,0,0,1-2.09-9.37,68.32,68.32,0,0,1,0-19.51,64,64,0,0,1,2.09-9.37,57.13,57.13,0,0,1,3.38-8.65,50.66,50.66,0,0,1,4.56-7.57,42.23,42.23,0,0,1,5.56-6.21,34.85,34.85,0,0,1,6.33-4.63,30.75,30.75,0,0,1,6.89-2.84,27.11,27.11,0,0,1,14.3,0,30.67,30.67,0,0,1,6.88,2.84,34.92,34.92,0,0,1,6.34,4.63,42.18,42.18,0,0,1,5.55,6.21,50.66,50.66,0,0,1,4.56,7.57,57.16,57.16,0,0,1,3.39,8.65,61.51,61.51,0,0,1,2.08,9.37A66.13,66.13,0,0,1,668.82,374.64Z"/><path class="cls-2" d="M632.16,424.63H595.5v-50h63.76Z"/><path class="cls-2" d="M632.16,374.64a69,69,0,0,1-.7,9.76,65.64,65.64,0,0,1-2.09,9.37,59.66,59.66,0,0,1-3.39,8.64,49.45,49.45,0,0,1-4.56,7.58,42.2,42.2,0,0,1-5.56,6.22,34.46,34.46,0,0,1-6.34,4.61,29.52,29.52,0,0,1-6.87,2.84,26.87,26.87,0,0,1-14.31,0,29.52,29.52,0,0,1-6.87-2.84,34.86,34.86,0,0,1-6.35-4.61,43.37,43.37,0,0,1-5.56-6.22,51.06,51.06,0,0,1-4.55-7.58,57.45,57.45,0,0,1-3.39-8.64,64.31,64.31,0,0,1-2.09-9.37,68.32,68.32,0,0,1,0-19.51,64,64,0,0,1,2.09-9.37,57.16,57.16,0,0,1,3.39-8.65,51.47,51.47,0,0,1,4.55-7.57,42.23,42.23,0,0,1,5.56-6.21,35,35,0,0,1,6.35-4.63,30.41,30.41,0,0,1,6.87-2.84,27.14,27.14,0,0,1,14.31,0,30.41,30.41,0,0,1,6.87,2.84,34.58,34.58,0,0,1,6.34,4.63,41.12,41.12,0,0,1,5.56,6.21,49.83,49.83,0,0,1,4.56,7.57,59.34,59.34,0,0,1,3.39,8.65,65.34,65.34,0,0,1,2.09,9.37A69,69,0,0,1,632.16,374.64Z"/><path class="cls-6" d="M713.69,363.05v11.59H434.63l-.05-11.59a22.09,22.09,0,0,1,1.7-8.39,21.3,21.3,0,0,1,2-3.8,22,22,0,0,1,2.74-3.33,22.57,22.57,0,0,1,3.35-2.73,20.88,20.88,0,0,1,3.79-2,21.42,21.42,0,0,1,8.42-1.67H462V303.94a21.76,21.76,0,0,1,.4-4.18,21.07,21.07,0,0,1,1.22-4,21.11,21.11,0,0,1,4.63-6.92,21,21,0,0,1,3.24-2.65,21.52,21.52,0,0,1,3.69-2,21.51,21.51,0,0,1,8.18-1.62H665a21.15,21.15,0,0,1,11.89,3.61,20.06,20.06,0,0,1,3.24,2.65,21.88,21.88,0,0,1,2.67,3.25,21.65,21.65,0,0,1,3.19,7.71,21.76,21.76,0,0,1,.4,4.18v37.14h5.33a22.19,22.19,0,0,1,4.29.41,24,24,0,0,1,4.11,1.24,23.26,23.26,0,0,1,3.81,2,22.24,22.24,0,0,1,3.31,2.73,20.83,20.83,0,0,1,2.74,3.33,21.3,21.3,0,0,1,2,3.8,21.91,21.91,0,0,1,1.67,8.39ZM482.64,278.28a3.42,3.42,0,0,0,1.12.76,3.56,3.56,0,0,0,2.67,0,3.46,3.46,0,0,0,1.13-.76,3.54,3.54,0,0,0,1-2.45V135a3.48,3.48,0,0,0-5.94-2.47,3.72,3.72,0,0,0-.75,1.13,3.4,3.4,0,0,0-.26,1.34V275.83a3.31,3.31,0,0,0,.26,1.32A3.6,3.6,0,0,0,482.64,278.28Zm-50.73,61.51a3.33,3.33,0,0,1,.27,1.33,3.44,3.44,0,0,1-.27,1.33,3.67,3.67,0,0,1-.75,1.12,3.29,3.29,0,0,1-1.13.75,3.4,3.4,0,0,1-1.33.27H53.51a3.54,3.54,0,0,1-2.45-1,3.5,3.5,0,0,1-.75-1.12,3.44,3.44,0,0,1-.27-1.33,3.33,3.33,0,0,1,.27-1.33,3.48,3.48,0,0,1,.75-1.14,3.72,3.72,0,0,1,1.13-.75,3.34,3.34,0,0,1,1.32-.26H226.56V166.23a33.86,33.86,0,0,1,.66-6.59,33.62,33.62,0,0,1,5.05-12.2,34.8,34.8,0,0,1,4.2-5.11,33.82,33.82,0,0,1,5.12-4.21,32.86,32.86,0,0,1,5.85-3.12,32.26,32.26,0,0,1,6.35-1.92,33.28,33.28,0,0,1,6.6-.66h68.69a33.2,33.2,0,0,1,6.6.66A32.26,32.26,0,0,1,342,135a32.77,32.77,0,0,1,5.84,3.12,33.41,33.41,0,0,1,5.13,4.21,33.32,33.32,0,0,1,7.33,11,33.45,33.45,0,0,1,1.92,6.35,33.1,33.1,0,0,1,.66,6.59V337.64H428.7a3.39,3.39,0,0,1,1.33.26,3.6,3.6,0,0,1,1.13.75A3.64,3.64,0,0,1,431.91,339.79Zm-198.38-2.15H355.94V166.23a26.3,26.3,0,0,0-.51-5.24,27.86,27.86,0,0,0-1.52-5,26.88,26.88,0,0,0-2.49-4.64,26.09,26.09,0,0,0-3.35-4.07A26.7,26.7,0,0,0,344,143.9a25.82,25.82,0,0,0-4.64-2.48,26.66,26.66,0,0,0-5-1.53,27.14,27.14,0,0,0-5.24-.52H260.39a27,27,0,0,0-10.29,2,26.08,26.08,0,0,0-4.63,2.48,27.28,27.28,0,0,0-4.08,3.34,26.6,26.6,0,0,0-3.34,4.07,26.88,26.88,0,0,0-2.49,4.64,27.86,27.86,0,0,0-1.52,5,26.3,26.3,0,0,0-.51,5.24ZM58.39,286.46a3.53,3.53,0,0,0,1.12.76,3.62,3.62,0,0,0,1.33.26H83a3.46,3.46,0,0,0,3.22-2.15,3.51,3.51,0,0,0,0-2.65,3.6,3.6,0,0,0-.75-1.13,3.59,3.59,0,0,0-2.47-1H60.84a3.44,3.44,0,0,0-1.33.27,3.34,3.34,0,0,0-1.12.75,3.29,3.29,0,0,0-.75,1.13,3.39,3.39,0,0,0,0,2.65A3.19,3.19,0,0,0,58.39,286.46Zm0,11.08a3.34,3.34,0,0,0,1.12.75,3.44,3.44,0,0,0,1.33.27H83a3.59,3.59,0,0,0,2.47-1,3.72,3.72,0,0,0,.75-1.13,3.38,3.38,0,0,0,.26-1.32,3.32,3.32,0,0,0-.26-1.33,3.38,3.38,0,0,0-1.89-1.89,3.32,3.32,0,0,0-1.33-.26H60.84a3.43,3.43,0,0,0-1.33.26,3.67,3.67,0,0,0-1.12.75,3.59,3.59,0,0,0-1,2.47,3.54,3.54,0,0,0,1,2.45Zm0,11.07a3.53,3.53,0,0,0,1.12.76,3.62,3.62,0,0,0,1.33.26H83a3.47,3.47,0,0,0,2.47-1,3.55,3.55,0,0,0,.75-1.12,3.53,3.53,0,0,0,0-2.66A3.47,3.47,0,0,0,83,302.68H60.84a3.62,3.62,0,0,0-1.33.26,3.53,3.53,0,0,0-1.12.76,3.19,3.19,0,0,0-.75,1.13,3.41,3.41,0,0,0,0,2.66A3.25,3.25,0,0,0,58.39,308.61Zm58.75-1.12a3.58,3.58,0,0,1-.26-1.33V282.57a3.5,3.5,0,0,1,.26-1.33,3.22,3.22,0,0,1,.76-1.12,3.36,3.36,0,0,1,1.13-.76,3.5,3.5,0,0,1,1.33-.26h23.57a3.58,3.58,0,0,1,1.33.26,3.46,3.46,0,0,1,1.13.76,3.22,3.22,0,0,1,.76,1.12,3.5,3.5,0,0,1,.26,1.33v23.6a3.47,3.47,0,0,1-1,2.46,3.75,3.75,0,0,1-1.13.74,3.58,3.58,0,0,1-1.33.26H120.36a3.5,3.5,0,0,1-1.33-.26,3.36,3.36,0,0,1-1.13-.76A3.42,3.42,0,0,1,117.14,307.49Zm6.66-4.81h16.66V286.05H123.83ZM651.68,126.31a3.51,3.51,0,0,0,1.89-1.87,3.58,3.58,0,0,0,.26-1.33,3.47,3.47,0,0,0-1-2.47,3.66,3.66,0,0,0-1.13-.75,3.32,3.32,0,0,0-1.33-.26H34.46a3.31,3.31,0,0,0-1.32.26,3.66,3.66,0,0,0-1.13.75,3.47,3.47,0,0,0-1,2.47,3.58,3.58,0,0,0,.26,1.33,3.51,3.51,0,0,0,1.89,1.87,3.32,3.32,0,0,0,1.32.27H650.35A3.33,3.33,0,0,0,651.68,126.31Z"/><path class="cls-5" d="M673.44,314.8a16.3,16.3,0,0,1-.31,3.2,17.11,17.11,0,0,1-.93,3.08,16.84,16.84,0,0,1-1.52,2.84,18.77,18.77,0,0,1-2,2.49,16.08,16.08,0,0,1-2.49,2,17.23,17.23,0,0,1-2.84,1.52,16.05,16.05,0,0,1-3.08.93,16.63,16.63,0,0,1-3.2.33,16.41,16.41,0,0,1-3.21-.33,15.64,15.64,0,0,1-3.08-.93,16.1,16.1,0,0,1-2.84-1.52,14.4,14.4,0,0,1-2.49-2,17.39,17.39,0,0,1-2-2.49,16.84,16.84,0,0,1-1.52-2.84,17.11,17.11,0,0,1-.93-3.08,16.67,16.67,0,0,1,0-6.4,17.36,17.36,0,0,1,.93-3.08,16.84,16.84,0,0,1,1.52-2.84,16.36,16.36,0,0,1,2-2.49,16.3,16.3,0,0,1,5.33-3.55,16.39,16.39,0,0,1,3.08-.95,17.2,17.2,0,0,1,3.21-.31,17.43,17.43,0,0,1,3.2.31,16.86,16.86,0,0,1,3.08.95,16.46,16.46,0,0,1,2.84,1.51,17.32,17.32,0,0,1,2.49,2,17.57,17.57,0,0,1,2,2.49,16.84,16.84,0,0,1,1.52,2.84,17.36,17.36,0,0,1,.93,3.08A16.45,16.45,0,0,1,673.44,314.8Z"/><path class="cls-5" d="M510.89,314.8a16.4,16.4,0,0,1-1.26,6.28,16.1,16.1,0,0,1-1.51,2.84,16.75,16.75,0,0,1-2.05,2.49,14.71,14.71,0,0,1-2.48,2,16.84,16.84,0,0,1-2.84,1.52,16.05,16.05,0,0,1-3.08.93,16.49,16.49,0,0,1-3.21.33,16.31,16.31,0,0,1-3.2-.33,15.64,15.64,0,0,1-3.08-.93,17.32,17.32,0,0,1-2.85-1.52,15.55,15.55,0,0,1-2.48-2,16.68,16.68,0,0,1-2-2.49,16.15,16.15,0,0,1-1.52-2.84,15,15,0,0,1-.93-3.08,16.16,16.16,0,0,1,0-6.4,15.18,15.18,0,0,1,.93-3.08,16.15,16.15,0,0,1,1.52-2.84,15.72,15.72,0,0,1,2-2.49,16,16,0,0,1,5.33-3.55,16.39,16.39,0,0,1,3.08-.95,17.1,17.1,0,0,1,3.2-.31,17.29,17.29,0,0,1,3.21.31,16.86,16.86,0,0,1,3.08.95,16.1,16.1,0,0,1,2.84,1.51,16.64,16.64,0,0,1,4.53,4.53,16.1,16.1,0,0,1,1.51,2.84,16.4,16.4,0,0,1,1.26,6.28Z"/><path class="cls-2" d="M627.66,348.11H523.17V298.38H627.66Z"/><path class="cls-5" d="M595.51,370.64H555.32V351.53h40.19Z"/><path class="cls-5" d="M515.39,270.29H623.31a17.55,17.55,0,0,0,3.32-.33,16.1,16.1,0,0,0,3.19-1,16.83,16.83,0,0,0,5.52-3.68,16.75,16.75,0,0,0,3.7-5.52,17.79,17.79,0,0,0,1-3.19,17.54,17.54,0,0,0,.32-3.32V166.23a16.87,16.87,0,0,0-1.29-6.51,18,18,0,0,0-1.57-2.94,17.51,17.51,0,0,0-2.13-2.57,16.27,16.27,0,0,0-2.57-2.12,17.24,17.24,0,0,0-6.14-2.54,16.76,16.76,0,0,0-3.32-.32H515.39a16.62,16.62,0,0,0-6.52,1.28,17.72,17.72,0,0,0-2.95,1.57,17.91,17.91,0,0,0-4.7,4.7,18,18,0,0,0-1.57,2.94,16.87,16.87,0,0,0-1.29,6.51v87.05a17.54,17.54,0,0,0,.32,3.32,17,17,0,0,0,1,3.19,18,18,0,0,0,1.57,2.94,17.6,17.6,0,0,0,2.13,2.58,16.84,16.84,0,0,0,2.57,2.12,17.05,17.05,0,0,0,2.95,1.58,17.49,17.49,0,0,0,3.19.95A16.21,16.21,0,0,0,515.39,270.29Z"/><path class="cls-5" d="M386.52,270.29h68.7a17.63,17.63,0,0,0,3.32-.33,16.3,16.3,0,0,0,3.19-1,16.61,16.61,0,0,0,2.94-1.57,16.86,16.86,0,0,0,2.58-2.11,17.35,17.35,0,0,0,2.11-2.58,16,16,0,0,0,1.58-2.94,17.79,17.79,0,0,0,1-3.19,17.55,17.55,0,0,0,.33-3.32V166.23a17.13,17.13,0,0,0-1.3-6.51,16,16,0,0,0-1.58-2.94,16.78,16.78,0,0,0-2.11-2.57,16.35,16.35,0,0,0-2.58-2.12,17.29,17.29,0,0,0-2.94-1.57,17.79,17.79,0,0,0-3.19-1,16.83,16.83,0,0,0-3.32-.32h-68.7a16.73,16.73,0,0,0-3.31.32,17.64,17.64,0,0,0-3.2,1,17.29,17.29,0,0,0-2.94,1.57,15.91,15.91,0,0,0-2.58,2.12,16.75,16.75,0,0,0-3.69,5.51,16.88,16.88,0,0,0-1,3.2,17.53,17.53,0,0,0-.34,3.31v87.05a17.56,17.56,0,0,0,.34,3.32,17,17,0,0,0,1,3.19,17.29,17.29,0,0,0,1.57,2.94,17.53,17.53,0,0,0,2.12,2.58,15.85,15.85,0,0,0,2.58,2.11A16.61,16.61,0,0,0,380,269a16.19,16.19,0,0,0,3.2,1A17.52,17.52,0,0,0,386.52,270.29Z"/><path class="cls-5" d="M260.39,270.29h68.69a17.55,17.55,0,0,0,3.32-.33,16.3,16.3,0,0,0,3.19-1,16.61,16.61,0,0,0,2.94-1.57,15.85,15.85,0,0,0,2.58-2.11,16.35,16.35,0,0,0,2.12-2.58,17.34,17.34,0,0,0,1.58-2.94,17,17,0,0,0,1-3.19,16.06,16.06,0,0,0,.34-3.32V166.23a16,16,0,0,0-.34-3.31,16.86,16.86,0,0,0-1-3.2,17.34,17.34,0,0,0-1.58-2.94,16.27,16.27,0,0,0-2.12-2.57,15.91,15.91,0,0,0-2.58-2.12,17.29,17.29,0,0,0-2.94-1.57,17.79,17.79,0,0,0-3.19-1,16.76,16.76,0,0,0-3.32-.32H260.39a16.76,16.76,0,0,0-3.32.32,17.54,17.54,0,0,0-3.19,1,17,17,0,0,0-2.95,1.57,17.22,17.22,0,0,0-4.68,4.69,16.66,16.66,0,0,0-1.58,2.94,16.86,16.86,0,0,0-1,3.2,16,16,0,0,0-.34,3.31v87.05a16.06,16.06,0,0,0,.34,3.32,17,17,0,0,0,1,3.19,17,17,0,0,0,6.26,7.63,16.35,16.35,0,0,0,2.95,1.57,16.1,16.1,0,0,0,3.19,1A17.55,17.55,0,0,0,260.39,270.29Z"/><path class="cls-5" d="M134.25,270.29h68.69a17.55,17.55,0,0,0,3.32-.33,16.3,16.3,0,0,0,3.19-1,16.69,16.69,0,0,0,3-1.57,16.29,16.29,0,0,0,2.58-2.11,17.53,17.53,0,0,0,2.12-2.58,18,18,0,0,0,1.57-2.94,17.79,17.79,0,0,0,1-3.19,16.76,16.76,0,0,0,.33-3.32V166.23a16.74,16.74,0,0,0-.33-3.31,17.64,17.64,0,0,0-1-3.2,18,18,0,0,0-1.57-2.94,17.45,17.45,0,0,0-2.12-2.57,16.35,16.35,0,0,0-2.58-2.12,17.38,17.38,0,0,0-3-1.57,17.79,17.79,0,0,0-3.19-1,16.76,16.76,0,0,0-3.32-.32H134.25a17.59,17.59,0,0,0-3.31.32,18.64,18.64,0,0,0-3.19,1,17.53,17.53,0,0,0-5.5,3.7,15.91,15.91,0,0,0-2.12,2.58,18,18,0,0,0-1.57,2.94,16.68,16.68,0,0,0-1.29,6.49v87.05a17.54,17.54,0,0,0,.32,3.32,17,17,0,0,0,1,3.19,18,18,0,0,0,1.57,2.94,16.35,16.35,0,0,0,2.12,2.58,16.92,16.92,0,0,0,2.58,2.12,15.7,15.7,0,0,0,3,1.56,17,17,0,0,0,6.51,1.3Z"/><path class="cls-5" d="M34.46,270.29H76.81a17.52,17.52,0,0,0,3.31-.33,16.19,16.19,0,0,0,3.2-1,16.61,16.61,0,0,0,2.94-1.57,16.36,16.36,0,0,0,2.59-2.11A16.86,16.86,0,0,0,91,262.73a16.61,16.61,0,0,0,1.57-2.94,17.82,17.82,0,0,0,1-3.19,17.55,17.55,0,0,0,.33-3.32V166.23a16.89,16.89,0,0,0-1.31-6.51A16.61,16.61,0,0,0,91,156.78a16.78,16.78,0,0,0-2.11-2.57,16.42,16.42,0,0,0-2.59-2.12,17.29,17.29,0,0,0-2.94-1.57,17.64,17.64,0,0,0-3.2-1,16.73,16.73,0,0,0-3.31-.32H34.46Z"/><path class="cls-2" d="M452.75,247.35h12.84a6.6,6.6,0,0,0,2.55-.51,6.45,6.45,0,0,0,2.15-1.44,6.26,6.26,0,0,0,1.44-2.15,6.73,6.73,0,0,0,.51-2.54V181.09a6.73,6.73,0,0,0-.51-2.54,6.35,6.35,0,0,0-1.44-2.15,6.77,6.77,0,0,0-2.15-1.44,6.59,6.59,0,0,0-2.55-.5H452.75a6.72,6.72,0,0,0-4.7,1.93,6.56,6.56,0,0,0-1.93,4.7v59.62a6.54,6.54,0,0,0,.5,2.54,6.43,6.43,0,0,0,1.45,2.15,6.17,6.17,0,0,0,2.15,1.44A6.46,6.46,0,0,0,452.75,247.35Z"/><path class="cls-2" d="M481.48,261H467.22a9.16,9.16,0,0,1-3.51-.7,9,9,0,0,1-3-2,9.17,9.17,0,0,1-2-3,9,9,0,0,1-.7-3.51V171.11a9.2,9.2,0,0,1,2.69-6.48,9.07,9.07,0,0,1,3-2,9,9,0,0,1,3.51-.69h14.26a2.32,2.32,0,0,1,2.31,2.31,2.3,2.3,0,0,1-2.31,2.31H467.22a4.47,4.47,0,0,0-1.73.36,4,4,0,0,0-1.46,1,4.34,4.34,0,0,0-1,1.47,4.45,4.45,0,0,0-.34,1.73v80.72a4.46,4.46,0,0,0,.34,1.74A4.56,4.56,0,0,0,465.5,256a4.28,4.28,0,0,0,1.73.35h14.25a2.25,2.25,0,0,1,1.63.68,2.32,2.32,0,0,1,0,3.28A2.25,2.25,0,0,1,481.48,261Z"/><path class="cls-2" d="M27,374.64H52.27A7,7,0,0,0,55,374.1a7.11,7.11,0,0,0,2.31-1.53,7.26,7.26,0,0,0,1.55-2.32,7,7,0,0,0,.54-2.72V344.68a7,7,0,0,0-.54-2.73,7.16,7.16,0,0,0-1.55-2.32A7.3,7.3,0,0,0,55,338.09a7,7,0,0,0-2.73-.54H27a7,7,0,0,0-2.73.54A6.78,6.78,0,0,0,22,339.63,7.16,7.16,0,0,0,20.44,342a7,7,0,0,0-.54,2.73v22.85a7.12,7.12,0,0,0,2.09,5,7.11,7.11,0,0,0,2.31,1.53A7,7,0,0,0,27,374.64Z"/><path class="cls-2" d="M713.69,377H27a9.17,9.17,0,0,1-3.61-.73,9.69,9.69,0,0,1-3.07-2,9.51,9.51,0,0,1-2.76-6.67V344.68a9,9,0,0,1,2.83-6.75A9.09,9.09,0,0,1,27,335.22h5.12V129.33a23.83,23.83,0,0,1,.46-4.69,24.58,24.58,0,0,1,1.37-4.5A23.79,23.79,0,0,1,36.21,116a22.64,22.64,0,0,1,3-3.63,24.15,24.15,0,0,1,3.63-3A24.48,24.48,0,0,1,47,107.13a25,25,0,0,1,4.51-1.37,24.61,24.61,0,0,1,4.69-.46H628.63a24.61,24.61,0,0,1,4.69.46,25.49,25.49,0,0,1,4.51,1.37,24,24,0,0,1,4.15,2.23,24.51,24.51,0,0,1,6.64,6.62,23.74,23.74,0,0,1,2.22,4.16,24.11,24.11,0,0,1,1.84,9.19V280.26H665a23.64,23.64,0,0,1,19.29,9.94,22.89,22.89,0,0,1,4.43,13.72v34.87h3a25.92,25.92,0,0,1,4.74.48,23.47,23.47,0,0,1,4.55,1.4,24.14,24.14,0,0,1,4.2,2.23,26,26,0,0,1,3.67,3,23.66,23.66,0,0,1,3,3.68,24.47,24.47,0,0,1,2.25,4.19,24.63,24.63,0,0,1,1.86,9.27v11.59a2.22,2.22,0,0,1-.69,1.65A2.31,2.31,0,0,1,713.69,377Zm-690-35.73a4.54,4.54,0,0,0-1.43,3.47v22.87a4.78,4.78,0,0,0,.36,1.83A4.72,4.72,0,0,0,23.64,371a4.8,4.8,0,0,0,1.55,1,4.87,4.87,0,0,0,1.84.37H711.38V363.1a21.33,21.33,0,0,0-.39-3.82,18.87,18.87,0,0,0-1.13-3.68,18.89,18.89,0,0,0-4.27-6.36,19.47,19.47,0,0,0-6.36-4.26,19.55,19.55,0,0,0-3.68-1.12,18.21,18.21,0,0,0-3.82-.39H686.4a2.32,2.32,0,0,1-2.31-2.33V304a19.41,19.41,0,0,0-.37-3.73,18.81,18.81,0,0,0-1.08-3.57,19.42,19.42,0,0,0-1.76-3.31,18.23,18.23,0,0,0-2.37-2.89,18.79,18.79,0,0,0-2.89-2.37,18.44,18.44,0,0,0-3.31-1.76,18,18,0,0,0-3.58-1.08,19.39,19.39,0,0,0-3.72-.37H650.35a2.22,2.22,0,0,1-1.63-.68,2.18,2.18,0,0,1-.68-1.63V129.33a19.45,19.45,0,0,0-1.49-7.42,19.24,19.24,0,0,0-4.21-6.29,17.91,17.91,0,0,0-2.94-2.4,18.55,18.55,0,0,0-3.34-1.8,19.29,19.29,0,0,0-7.43-1.48H56.19a19.29,19.29,0,0,0-10.78,3.28,18.27,18.27,0,0,0-2.93,2.4,19.24,19.24,0,0,0-4.21,6.29,19.45,19.45,0,0,0-1.49,7.42V337.55a2.18,2.18,0,0,1-.68,1.63,2.24,2.24,0,0,1-1.64.68H27A4.67,4.67,0,0,0,23.66,341.24Z"/><path class="cls-2" d="M394.91,374.64a67.56,67.56,0,0,1-.71,9.76,64.29,64.29,0,0,1-2.08,9.37,56.44,56.44,0,0,1-3.4,8.64,49.41,49.41,0,0,1-4.55,7.58,43.31,43.31,0,0,1-5.55,6.22,35.21,35.21,0,0,1-6.35,4.61,29.41,29.41,0,0,1-6.88,2.84,26.84,26.84,0,0,1-14.3,0,29.77,29.77,0,0,1-6.88-2.84,34.73,34.73,0,0,1-6.33-4.61,42.2,42.2,0,0,1-5.56-6.22,48.67,48.67,0,0,1-4.56-7.58,58.54,58.54,0,0,1-3.39-8.64,65.64,65.64,0,0,1-2.09-9.37,68.32,68.32,0,0,1,0-19.51,65.34,65.34,0,0,1,2.09-9.37,58.23,58.23,0,0,1,3.39-8.65,49,49,0,0,1,4.56-7.57,41.12,41.12,0,0,1,5.56-6.21,34.85,34.85,0,0,1,6.33-4.63,30.67,30.67,0,0,1,6.88-2.84,27.11,27.11,0,0,1,14.3,0,30.29,30.29,0,0,1,6.88,2.84,35.33,35.33,0,0,1,6.35,4.63,42.18,42.18,0,0,1,5.55,6.21,49.79,49.79,0,0,1,4.55,7.57,56.15,56.15,0,0,1,3.4,8.65,64,64,0,0,1,2.08,9.37A67.52,67.52,0,0,1,394.91,374.64Z"/><path class="cls-5" d="M342.27,374.64c0,12,7.15,21.77,16,21.77s16-9.74,16-21.77-7.16-21.76-16-21.76S342.27,362.62,342.27,374.64Z"/><path class="cls-2" d="M162.3,374.64a67.55,67.55,0,0,1-.7,9.76,63,63,0,0,1-2.09,9.37,55.4,55.4,0,0,1-3.39,8.64,49.41,49.41,0,0,1-4.55,7.58,43.37,43.37,0,0,1-5.56,6.22,35.14,35.14,0,0,1-6.34,4.61,29.77,29.77,0,0,1-6.88,2.84,26.84,26.84,0,0,1-14.3,0,29.59,29.59,0,0,1-6.88-2.84,34.39,34.39,0,0,1-6.33-4.61A41.64,41.64,0,0,1,99.72,410a48.67,48.67,0,0,1-4.56-7.58,58.57,58.57,0,0,1-3.4-8.64,65.62,65.62,0,0,1-2.08-9.37,67.37,67.37,0,0,1,0-19.51,65.32,65.32,0,0,1,2.08-9.37,58.26,58.26,0,0,1,3.4-8.65,49,49,0,0,1,4.56-7.57,40.59,40.59,0,0,1,5.56-6.21,34.51,34.51,0,0,1,6.33-4.63,30.48,30.48,0,0,1,6.88-2.84,27.11,27.11,0,0,1,14.3,0,30.67,30.67,0,0,1,6.88,2.84,35.27,35.27,0,0,1,6.34,4.63,42.23,42.23,0,0,1,5.56,6.21,49.79,49.79,0,0,1,4.55,7.57,55.13,55.13,0,0,1,3.39,8.65,62.74,62.74,0,0,1,2.09,9.37A67.52,67.52,0,0,1,162.3,374.64Z"/><path class="cls-5" d="M109.66,374.64c0,12,7.15,21.77,16,21.77s16-9.74,16-21.77-7.16-21.76-16-21.76S109.66,362.62,109.66,374.64Z"/><path class="cls-2" d="M123.51,532.71a3.48,3.48,0,0,0,1.61.2,2.45,2.45,0,0,0,2.06-.9,5.54,5.54,0,0,0,.71-3.27v-1.31a8.39,8.39,0,0,0-.6-3.72,2.13,2.13,0,0,0-2-1.15,4.63,4.63,0,0,0-1.86.25,4.85,4.85,0,0,1,.1,1.2Zm0-26.65a3.42,3.42,0,0,0,1.61.21,2.33,2.33,0,0,0,2.06-1.06,6.45,6.45,0,0,0,.71-3.47v-.4a7.84,7.84,0,0,0-.6-3.62,2.15,2.15,0,0,0-2-1.11,4.82,4.82,0,0,0-1.86.25,4.89,4.89,0,0,1,.1,1.21ZM85.1,478.86c0-1.1.88-2.33,2.67-3.72q5.67-4.26,20-6.68a101.57,101.57,0,0,1,16.34-1.21q21.21,0,32.08,8.19a22.71,22.71,0,0,1,9.55,19,23.64,23.64,0,0,1-1.51,8.3,12.87,12.87,0,0,1-4.22,6.13,15.8,15.8,0,0,0-7.19-1.91,4.21,4.21,0,0,0-2.52.65,2.75,2.75,0,0,0-.8,2.32q10.35.41,16.19,7.49,5.13,6.45,5.13,16,0,14.77-12.37,21.47-11.58,6.28-34.9,6.28-16.33,0-24-1t-11.06-4.82q-3.37-3.81-3.37-11.62Z"/><path class="cls-2" d="M233.15,467.9a24.27,24.27,0,0,1,14.69,4.58c4.14,3,6.23,7.41,6.23,13.07v39.32q0,18-11,27.7t-30.32,9.71q-19.31,0-30.07-9.56-11-9.54-11-27.85V474.44a30.08,30.08,0,0,1,19.31-6.64c6.13,0,11,1.64,14.53,4.88s5.38,8.09,5.38,14.63v41.23a3,3,0,0,0,1.81.55,1.94,1.94,0,0,0,1.51-.5,3.28,3.28,0,0,0,.45-2V487.26a43.94,43.94,0,0,0-.45-7.09,19.45,19.45,0,0,0-1.66-5.23A31.09,31.09,0,0,1,233.15,467.9Z"/><path class="cls-2" d="M296.63,534.62c1.53-.26,2.31-1,2.31-2.36a9.68,9.68,0,0,0-1.26-4.37,15.36,15.36,0,0,0-3.62-4.63q-6.3-5.67-17-5.68a27.7,27.7,0,0,0-9.91,1.76,18.06,18.06,0,0,1-7.79-7.85,24.21,24.21,0,0,1-2.87-11.56q0-16.29,13.58-25.14,11.66-7.55,28.76-7.54,12.7,0,21.42,2.71a45.53,45.53,0,0,1,14.23,7,30.58,30.58,0,0,1,.25,18.81,15.39,15.39,0,0,1-3.87,6.53c-1.61-1.17-4.52-2.36-8.7-3.57a41.19,41.19,0,0,0-11.47-1.86,23.54,23.54,0,0,0-6.88.66c-1.15.4-1.71,1.05-1.71,2a3.29,3.29,0,0,0,.2,1.2,26.29,26.29,0,0,1,6.38-.65q13.77,0,22.48,6.54,10.26,7.8,10.26,23.33,0,13.73-11.12,22.77-12,9.66-32.33,9.66a99,99,0,0,1-19.35-1.66,58,58,0,0,1-16-5.83,27.38,27.38,0,0,1-5.28-15.64A17.53,17.53,0,0,1,262.74,526a18.43,18.43,0,0,1,13.37-5.28q8,0,13,3.26T296.63,534.62Z"/><path class="cls-2" d="M389.64,517.23a26.47,26.47,0,0,1-1.46,9,35.14,35.14,0,0,1-4.47,8.19H346a28.59,28.59,0,0,1-5.89-17.24,27.28,27.28,0,0,1,1.46-9.2,38,38,0,0,1,4.43-8.45h37.76a37.12,37.12,0,0,1,4.52,8.55A27.72,27.72,0,0,1,389.64,517.23Z"/><path class="cls-2" d="M432.11,512.9a2.92,2.92,0,0,0,1.61.25,2.34,2.34,0,0,0,2.06-1,6.7,6.7,0,0,0,.7-3.47v-5.38a7.84,7.84,0,0,0-.6-3.62,2.08,2.08,0,0,0-2-1.11,4.75,4.75,0,0,0-1.86.25c0,.24.05.64.05,1.21Zm1.76,32v10.81a24.15,24.15,0,0,1-8.8,4.27,41.33,41.33,0,0,1-11.77,1.66q-8.74,0-14.33-3.37A12.45,12.45,0,0,1,392.59,547V479.82q0-2.26,3.06-4.53a31,31,0,0,1,8.55-4.07,82.7,82.7,0,0,1,26.65-4q20.7,0,33,10.36t12.32,27.75q0,17.4-11.11,27.1-10.67,9.16-29.61,9.15a46.3,46.3,0,0,1-9.26-1,33.77,33.77,0,0,1-6.58-1.81,2.06,2.06,0,0,0-.56,1.55Q419,544,433.87,544.88Z"/><path class="cls-2" d="M538.73,467.9a24.21,24.21,0,0,1,14.68,4.58q6.23,4.57,6.24,13.07v39.32q0,18-11,27.7t-30.32,9.71q-19.31,0-30.07-9.56-11-9.54-11-27.85V474.44a30.08,30.08,0,0,1,19.31-6.64c6.13,0,11,1.64,14.53,4.88s5.38,8.09,5.38,14.63v41.23a3,3,0,0,0,1.81.55,2,2,0,0,0,1.51-.5,3.28,3.28,0,0,0,.45-2V487.26a43.94,43.94,0,0,0-.45-7.09,19.45,19.45,0,0,0-1.66-5.23Q526.69,467.91,538.73,467.9Z"/><path class="cls-2" d="M610,532.21a2.49,2.49,0,0,0,1.3-.35v-6.44q4.79-3.21,13.43-5.28a73.32,73.32,0,0,1,16.89-2.06c2.48,2.55,4.55,6.36,6.24,11.41a48.27,48.27,0,0,1,2.66,13.78,23.57,23.57,0,0,1-4.77,6.08,43.54,43.54,0,0,1-8.1,6q-11.73,6.93-27,6.94-21.78,0-34.29-12.67-12.93-12.76-12.92-35.45t14.13-35.6a41.42,41.42,0,0,1,14.48-8.7,51.41,51.41,0,0,1,17.39-3q17.85,0,29.22,8.65t11.41,21.26q0,9.57-5.88,14.13t-15.94,4.53a25.11,25.11,0,0,1-11.06-2.72c-3.72-1.81-5.94-3.52-6.64-5.13,0-3.84.06-6.89.2-9.1a1,1,0,0,0-.5-.1h-.5a2.2,2.2,0,0,0-1.66.61,5.58,5.58,0,0,0-1.06,2.51q-.45,1.92-.45,10.41Q606.58,532.22,610,532.21Z"/><path class="cls-2" d="M225.34,73.36c9.4,0,15.46-3.57,15.42-8.85,0-4.59-3.68-6.93-12.24-7.78l-4.7-.53c-3.3-.31-4.72-.88-4.68-1.84,0-1.34,2.65-2.19,6.3-2.23a20.44,20.44,0,0,1,10.86,2.94l2.55-5.34c-3.18-2-8.21-3.22-13.48-3.22-9.13,0-15.28,3.08-15.32,8.52,0,4.5,3.47,6.73,11.53,7.57l4.67.54c3.83.39,5.45,1.09,5.45,2.15,0,1.38-2.27,2.2-5.87,2.2-4.88,0-10.37-1.7-13.38-4L209.37,69C212.78,71.59,219.28,73.36,225.34,73.36Z"/><path class="cls-2" d="M246.77,72.62h9.3V47.29h-9.3Z"/><path class="cls-2" d="M263.15,72.62H272V56h0l13.58,16.67H296.8V47.29H288V63.74h0L274.36,47.29H263.15Z"/><path class="cls-2" d="M321.73,73.22c9.37,0,16.14-3.93,17.48-10.16l-8.63-1.52c-.71,3.16-4.08,5.13-8.6,5.13-5.73,0-9.38-2.61-9.42-6.72s3.26-6.72,8.35-6.72c3.62,0,6.49,1.66,7.37,4.28l8.48-1.74c-1.7-5.59-8-9.12-16.09-9.12-10.68,0-17.45,5.16-17.45,13.3C303.22,68.33,310.4,73.22,321.73,73.22Z"/><path class="cls-2" d="M345,72.62h27.14V66.88H354.09v-4.7h16.32V57.26H354.09V53h17.72V47.29H345Z"/><path class="cls-2" d="M389.29,72.62h28.42v-5.7h-19c0-2,1.38-3,5-3.57l4.46-.6c6.54-.82,9.27-3,9.27-7.4,0-5.76-5.21-8.7-12.38-8.7-5.38,0-11.51,1.59-15.19,4.31l3,5.59a21.63,21.63,0,0,1,11-3.61c2.73,0,4.54,1,4.54,2.58,0,1.28-1.13,1.91-3.82,2.34l-3.9.56c-8.07,1.11-11.36,4.08-11.33,10.9Z"/><path class="cls-2" d="M439.88,73.22c9.51,0,16.31-5.42,16.31-13.27s-6.8-13.3-16.31-13.3S423.57,52.09,423.57,60,430.36,73.22,439.88,73.22Zm0-6.47c-4.1,0-6.94-2.69-6.94-6.8s2.84-6.79,6.94-6.79,7,2.69,7,6.79S444,66.75,439.88,66.75Z"/><path class="cls-2" d="M462.05,72.62h28.42v-5.7h-19c0-2,1.39-3,5-3.57l4.47-.6c6.53-.82,9.26-3,9.26-7.4,0-5.76-5.2-8.7-12.38-8.7-5.38,0-11.5,1.59-15.18,4.31l3,5.59a21.63,21.63,0,0,1,11-3.61c2.73,0,4.54,1,4.54,2.58,0,1.28-1.13,1.91-3.82,2.34l-3.9.56c-8.07,1.11-11.36,4.08-11.32,10.9Z"/><path class="cls-2" d="M496.15,72.62h28.42v-5.7h-19c0-2,1.39-3,5-3.57l4.46-.6c6.53-.82,9.26-3,9.26-7.4,0-5.76-5.2-8.7-12.38-8.7-5.38,0-11.5,1.59-15.18,4.31l3,5.59a21.63,21.63,0,0,1,11-3.61c2.73,0,4.54,1,4.54,2.58,0,1.28-1.13,1.91-3.82,2.34l-3.9.56c-8.07,1.11-11.36,4.08-11.32,10.9Z"/></g></g></svg>